<svg xmlns="http://www.w3.org/2000/svg" xmlns:xlink="http://www.w3.org/1999/xlink" width="101" height="100" id="myanmar">
  <defs>
    <path id="a" d="M6.364-.001h57.272c3.515 0 6.364 2.87 6.364 6.41V40.59c0 3.54-2.849 6.409-6.364 6.409H6.364C2.849 46.999 0 44.13 0 40.59V6.409c0-3.54 2.849-6.41 6.364-6.41Z"></path>
  </defs>
  <g fill="none" fill-rule="evenodd">
    <path fill="#57A763" d="M22.364 26h57.272C83.151 26 86 28.87 86 32.41v34.181C86 70.131 83.151 73 79.636 73H22.364C18.849 73 16 70.131 16 66.591V32.41c0-3.54 2.849-6.41 6.364-6.41Z"></path>
    <g transform="translate(16 26.001)">
      <mask id="b" fill="#fff">
        <use xlink:href="#a"></use>
      </mask>
      <path fill="#F5D55F" d="M0 15.999h70v-16H0z" mask="url(#b)"></path>
      <path fill="#ED5565" d="M0 46.999h70v-16H0z" mask="url(#b)"></path>
    </g>
    <path fill="#FFF" d="M43.471 63.546c-1.239.912-1.959.399-1.601-1.14l1.336-5.729c.358-1.538-.289-3.641-1.439-4.672l-4.042-3.626c-1.15-1.032-.852-1.912.663-1.956l5.659-.166c1.514-.044 3.105-1.323 3.536-2.841l1.773-6.258c.43-1.519 1.203-1.543 1.717-.053l2.132 6.173c.514 1.49 2.175 2.722 3.69 2.737l5.772.061c1.515.016 1.819.879.675 1.917l-4.392 3.989c-1.144 1.038-1.734 3.132-1.31 4.653l1.402 5.04c.423 1.521-.287 2.088-1.58 1.261l-4.689-3.003c-1.292-.827-3.363-.758-4.602.154l-4.7 3.459Z"></path>
  </g>
</svg>
