<svg xmlns="http://www.w3.org/2000/svg" fill-rule="evenodd" stroke-linejoin="round" stroke-miterlimit="2" clip-rule="evenodd" viewBox="0 0 512 512" id="myanmar-map">
  <g transform="translate(-562 -2248)">
    <g>
      <g transform="translate(-36.04 -107.885)scale(1.0432)">
        <path fill="#71e4bf" d="M718.573,2464.58C714.87,2453.49 723.301,2455.39 724.321,2448.33C725.079,2443.08 722.037,2434.39 724.37,2429.93C725.476,2427.81 733.221,2429.02 735.278,2426.95C736.011,2426.2 735.51,2424.87 735.446,2423.83C734.791,2413.13 736.831,2413.78 741.266,2405.11C743.792,2400.18 742.395,2394.48 741.766,2389.27C741.725,2388.93 741.198,2385.13 741.325,2385.09C750.746,2382.6 756.357,2390.46 761.88,2379.86C764.076,2375.65 769.432,2367.18 770.471,2362.77C771.364,2358.97 769.671,2354.42 771.14,2350.87C773.779,2344.49 779.084,2339.82 781.218,2333C782.793,2327.96 778.894,2321.64 781.256,2316.95C781.294,2316.87 808.732,2301.55 810.547,2301.5C814.538,2301.4 816.789,2305.51 820.281,2305.88C820.821,2305.94 821.133,2296.71 821.205,2295.43C821.416,2291.7 826.163,2288.86 828.46,2286.69C829.557,2285.65 830.854,2277.48 831.928,2277.44C832.78,2277.41 857.841,2301.01 859.582,2303.49C870.297,2318.77 858.701,2331.96 853.242,2345.99C851.863,2349.53 853.16,2353.82 849.981,2356.67C843.255,2362.72 830.16,2366.64 834.702,2378.92C838.089,2388.07 853.12,2376.6 857.976,2381.38C861.929,2385.28 860.481,2393 863.531,2397.23C866.967,2401.99 877.691,2405.35 879.196,2410.38C880.806,2415.77 869.685,2423.99 874.94,2429.66C877.886,2432.84 898.717,2442.73 903.534,2443.35C907.375,2443.85 911.11,2444.08 914.969,2443.64C915.406,2443.59 919.555,2442.28 919.727,2442.48C920.582,2443.49 911.515,2449.96 910.674,2450.67C906.104,2454.53 905.02,2460.42 900.361,2464.4C897.458,2466.89 896.044,2470.74 892.823,2472.82C888.107,2475.88 881.754,2475.37 877.376,2479C873.51,2482.21 872.121,2488.1 867.843,2490.69C854.354,2498.84 851.755,2495.62 843.242,2509.12C841.246,2512.28 837.023,2513.47 837.203,2517.91C837.595,2527.55 850.366,2530.62 855.413,2537.36C858.44,2541.4 856.444,2549.74 857.522,2554.62C859.019,2561.39 864.928,2566.49 867.007,2573.14C870.431,2584.09 853.5,2598.52 854.502,2602.63C857.727,2615.87 871.534,2619.65 878.291,2629.14C883.369,2636.27 876.5,2647.02 878.103,2654.91C879.557,2662.07 886.662,2666.36 888.06,2673C890.35,2683.88 879.359,2704.59 873.147,2712.86C870.675,2716.15 868.754,2719.75 866.911,2723.43C865.846,2725.55 864.819,2731.56 863.431,2729.64C861.948,2727.58 869.795,2700.03 868.07,2691.9C866.361,2683.84 863.394,2676.35 862.688,2668.06C862.205,2662.39 865.833,2656.13 863.984,2650.65C861.612,2643.62 855.166,2639.8 851.399,2633.8C847.06,2626.89 844.67,2615.91 842.562,2608C836.158,2583.96 844.353,2574.4 826.052,2551.55C824.397,2549.48 814.738,2568.61 811.909,2571.05C798.697,2582.49 782.091,2593.72 763.877,2585.11C760.793,2583.66 763.284,2573.12 763.641,2570.85C765.449,2559.3 768.231,2541.73 766.786,2530.22C765.772,2522.14 758.891,2517.07 754.908,2510.63C750.713,2503.84 751.971,2494.27 746.762,2487.81C740.048,2479.5 725.476,2473.45 718.573,2464.58Z"></path>
      </g>
      <g transform="translate(11.848 38.562)scale(.9847)">
        <path fill="#14d597" d="M910.854,2440.03C914.132,2440.36 917.366,2440.45 920.687,2440.07C921.15,2440.01 925.545,2438.63 925.727,2438.85C926.633,2439.91 917.027,2446.77 916.136,2447.52C911.295,2451.61 910.147,2457.85 905.211,2462.07C902.135,2464.7 900.638,2468.78 897.226,2470.99C892.229,2474.23 885.499,2473.69 880.861,2477.53C876.765,2480.93 875.294,2487.18 870.762,2489.91C856.471,2498.55 853.718,2495.14 844.699,2509.44C842.584,2512.79 838.11,2514.05 838.301,2518.75C838.717,2528.97 852.246,2532.22 857.593,2539.36C860.8,2543.64 858.685,2552.48 859.828,2557.65C861.413,2564.82 867.674,2570.22 869.875,2577.26C873.503,2588.86 855.566,2604.15 856.628,2608.51C860.044,2622.53 874.672,2626.54 881.83,2636.59C887.209,2644.14 879.932,2655.53 881.63,2663.89C883.171,2671.47 890.698,2676.02 892.179,2683.05C894.606,2694.58 882.962,2716.52 876.381,2725.28C873.761,2728.76 871.727,2732.58 869.774,2736.47C868.646,2738.72 867.558,2745.1 866.087,2743.06C864.517,2740.88 872.829,2711.69 871.002,2703.07C869.191,2694.54 866.048,2686.6 865.3,2677.82C864.789,2671.82 868.632,2665.18 866.673,2659.38C864.161,2651.93 857.331,2647.89 853.34,2641.53C848.744,2634.21 846.212,2622.58 843.978,2614.19C837.194,2588.72 845.876,2578.6 826.489,2554.39C824.734,2552.2 814.502,2572.46 811.505,2575.05C797.508,2587.17 779.916,2599.06 760.62,2589.95C757.353,2588.4 759.992,2577.24 760.37,2574.83C762.285,2562.6 765.233,2543.99 763.702,2531.8C762.627,2523.24 755.337,2517.86 751.118,2511.04C746.674,2503.85 748.007,2493.7 742.488,2486.87C735.375,2478.06 719.937,2471.65 712.625,2462.26C711.786,2459.75 711.535,2457.86 711.67,2456.38C719.534,2454.88 728.138,2454.2 734.453,2458.19C740.145,2461.78 743.753,2467.58 749.547,2471.07C757.155,2475.66 764.936,2475.73 771.084,2482.78C780.294,2493.34 783.586,2521.75 802.94,2517.57C824.041,2513.02 824.698,2491.57 838.777,2480.04C849.288,2471.43 863.216,2469.09 875.362,2463.71C882.895,2460.37 889.238,2454.08 896.153,2449.71C899.675,2447.49 905.065,2443.57 910.854,2440.03Z"></path>
      </g>
      <g transform="translate(312.575 2076.3)scale(1.16889)">
        <path fill="#f05475" d="M423.181,287.977C435.24,287.977 445.03,297.767 445.03,309.826C445.03,321.885 423.181,355.99 423.181,355.99C423.181,355.99 401.332,321.885 401.332,309.826C401.332,297.767 411.122,287.977 423.181,287.977Z"></path>
      </g>
      <g transform="translate(501.109 2274.22)scale(.9847)">
        <path fill="#f62e59" d="M318.012,209.848C315.993,213.293 310.874,221.579 310.874,221.579C310.874,221.579 284.938,181.095 284.938,166.78C284.938,152.466 296.56,140.845 310.874,140.845L310.713,141.133C287.01,153.928 294.244,183.89 318.012,209.848Z"></path>
      </g>
      <g transform="translate(624.352 2304.56)scale(.43215)">
        <circle cx="423.181" cy="309.826" r="21.849" fill="#fff"></circle>
      </g>
      <path d="M825.079,2275.1C823.569,2276.45 821.391,2278.02 819.767,2279.84C818.007,2281.82 816.843,2284.07 816.707,2286.48C816.677,2287 816.53,2289.25 816.384,2291.45L815.987,2291.18C814.048,2289.93 811.937,2289.04 809.422,2289.1C808.922,2289.11 807.057,2289.63 804.492,2290.89C797.436,2294.34 781.615,2303.12 777.839,2305.25C776.067,2306.26 775.46,2307.35 775.446,2307.38C774.107,2310.04 774.021,2313.05 774.458,2316.19C774.695,2317.89 775.079,2319.64 775.28,2321.35C775.418,2322.51 775.497,2323.66 775.165,2324.72C774.172,2327.89 772.402,2330.55 770.612,2333.17C768.453,2336.33 766.252,2339.45 764.771,2343.03C763.948,2345.02 763.756,2347.22 763.835,2349.5C763.911,2351.7 764.361,2353.99 763.879,2356.05C762.848,2360.43 757.437,2368.78 755.259,2372.96C754.171,2375.05 753.272,2376.22 752.108,2376.64C750.87,2377.08 749.559,2376.74 748.1,2376.49C744.715,2375.92 740.878,2375.22 736.302,2376.43C735.773,2376.57 733.382,2377.35 733.349,2380.32C733.341,2381.07 733.814,2384.7 733.858,2385.07C734.174,2387.68 734.694,2390.43 734.806,2393.13C734.895,2395.26 734.74,2397.38 733.74,2399.33C728.645,2409.29 726.491,2408.6 727.244,2420.89C727.25,2420.97 727.259,2421.08 727.271,2421.19C727.04,2421.24 726.809,2421.28 726.612,2421.3C724.895,2421.53 722.995,2421.63 721.486,2421.9C718.734,2422.39 716.896,2423.72 716.131,2425.18C714.866,2427.6 714.581,2430.91 714.851,2434.49C715.142,2438.34 716.112,2442.59 715.671,2445.64C715.46,2447.1 714.619,2447.86 713.83,2448.58C713.182,2449.17 712.523,2449.73 711.921,2450.34C710.779,2451.5 709.826,2452.81 709.24,2454.51C708.477,2456.72 708.283,2459.76 709.838,2464.41C709.979,2464.84 710.192,2465.23 710.466,2465.58C714.293,2470.5 720.199,2474.69 726.125,2478.74C731.364,2482.33 736.625,2485.8 739.916,2489.87C742.24,2492.75 743.005,2496.37 743.773,2499.98C744.767,2504.66 745.706,2509.35 748.127,2513.26C750.27,2516.73 753.176,2519.84 755.7,2523.16C757.729,2525.83 759.523,2528.63 759.961,2532.13C761.43,2543.82 758.534,2561.68 756.697,2573.41C756.415,2575.2 755.025,2581.57 755.366,2585.78C755.642,2589.19 757.185,2591.53 759.152,2592.46C779.702,2602.16 798.613,2590.11 813.519,2577.21C815.231,2575.73 819.301,2568.88 822.86,2563.18C823.576,2562.03 824.44,2560.79 825.203,2559.72C833.596,2571.26 834.844,2579.32 835.541,2588.38C836.099,2595.63 836.363,2603.47 839.112,2613.79C841.402,2622.39 844.089,2634.28 848.801,2641.79C850.895,2645.12 853.705,2647.88 856.35,2650.75C858.462,2653.04 860.481,2655.41 861.534,2658.53C862.278,2660.73 861.763,2663.09 861.268,2665.47C860.547,2668.94 859.706,2672.45 859.989,2675.76C860.74,2684.57 863.858,2692.55 865.675,2701.11C866.188,2703.53 865.674,2707.78 864.942,2712.53C863.705,2720.53 861.621,2729.76 860.872,2735.01C860.536,2737.36 860.507,2739.12 860.679,2740.02C860.845,2740.89 861.173,2741.53 861.494,2741.97C862.506,2743.38 863.675,2743.81 864.629,2743.95C865.627,2744.1 866.623,2743.92 867.585,2743.33C868.236,2742.93 869.007,2742.18 869.617,2741.01C870.413,2739.49 871.122,2736.38 871.84,2734.95C873.657,2731.33 875.537,2727.77 877.974,2724.53C882.027,2719.13 887.959,2708.87 891.512,2698.97C894.066,2691.85 895.31,2684.87 894.236,2679.77C893.388,2675.74 890.931,2672.36 888.343,2668.96C886.474,2666.51 884.491,2664.06 883.854,2660.92C883.446,2658.91 883.757,2656.68 884.176,2654.38C884.7,2651.5 885.444,2648.53 885.832,2645.66C886.478,2640.87 886.104,2636.34 883.399,2632.54C879.671,2627.31 874.058,2623.58 868.872,2619.4C864.77,2616.1 860.929,2612.48 859.359,2606.85C859.854,2606.03 861.937,2602.62 863.754,2600.06C866.668,2595.96 869.919,2591.14 871.591,2586.36C872.924,2582.56 873.28,2578.76 872.178,2575.23C870.987,2571.42 868.75,2568.03 866.544,2564.65C864.799,2561.97 863.05,2559.31 862.371,2556.24C861.735,2553.37 862.253,2549.26 862.073,2545.59C861.905,2542.12 861.16,2538.97 859.478,2536.72C856.632,2532.92 851.688,2530.06 847.321,2526.89C844.29,2524.68 841.417,2522.41 841.264,2518.63C841.208,2517.25 842.232,2516.63 843.076,2515.88C844.481,2514.63 845.927,2513.36 846.959,2511.72C851.652,2504.28 854.313,2502.3 858.428,2500.34C861.63,2498.82 865.544,2497.26 871.33,2493.77C873.613,2492.39 875.337,2490.36 876.844,2488.08C878.4,2485.72 879.622,2483 881.751,2481.24C883.584,2479.72 885.872,2479.16 888.153,2478.57C891.405,2477.72 894.679,2476.89 897.493,2475.06C899.583,2473.71 901.137,2471.83 902.589,2469.84C903.576,2468.49 904.493,2467.07 905.773,2465.97C908.56,2463.59 910.33,2460.68 912.034,2457.74C913.296,2455.57 914.491,2453.37 916.516,2451.66C917.254,2451.03 923.736,2446.32 925.832,2443.91C928.203,2441.19 927.269,2438.56 926.419,2437.56C926.026,2437.1 924.969,2436 922.931,2436.16C922.149,2436.23 918.417,2437.25 917.816,2437.42C914.178,2437.82 910.652,2437.57 907.027,2437.11C904.202,2436.74 895.792,2433.01 888.855,2429.49C884.481,2427.28 880.674,2425.23 879.584,2424.05C878.761,2423.16 879.216,2422.12 879.649,2421.05C880.277,2419.51 881.241,2417.93 882.131,2416.39C883.29,2414.38 884.331,2412.4 884.839,2410.58C885.342,2408.78 885.38,2407.07 884.909,2405.49C884.068,2402.68 881.415,2400.02 877.931,2397.68C874.422,2395.33 869.92,2393.27 867.988,2390.59C867.332,2389.68 867.032,2388.52 866.765,2387.31C866.379,2385.54 866.136,2383.66 865.758,2381.86C865.085,2378.66 863.952,2375.72 861.764,2373.56C860.025,2371.85 857.631,2371.08 854.748,2371.16C852.001,2371.24 848.649,2372.19 845.382,2372.96C843.713,2373.35 842.074,2373.7 840.609,2373.68C839.657,2373.67 838.797,2373.47 838.413,2372.43C836.35,2366.86 839.401,2363.68 843.025,2360.94C846.445,2358.36 850.408,2356.11 853.291,2353.52C855.315,2351.7 856.261,2349.55 856.734,2347.23C857.155,2345.16 856.948,2342.88 857.731,2340.87C860.606,2333.48 865.081,2326.31 867.443,2318.97C870.141,2310.6 870.345,2302.04 863.899,2292.85C862.218,2290.45 840.324,2269.66 835.286,2265.56C833.486,2264.1 831.969,2263.99 831.675,2264C830.639,2264.04 828.612,2264.72 827.506,2267.3C826.772,2269.02 825.378,2274.02 825.079,2275.1ZM833.56,2274.49C841.072,2281.21 856.108,2295.46 857.449,2297.38C863.212,2305.59 861.565,2313.14 858.437,2320.58C855.996,2326.38 852.68,2332.13 850.39,2338.01C849.685,2339.83 849.473,2341.78 849.277,2343.71C849.135,2345.12 849.209,2346.6 848.025,2347.66C844.505,2350.83 839.322,2353.44 835.61,2356.86C830.791,2361.31 827.939,2366.82 831.025,2375.16C833.19,2381.01 838.057,2382.21 843.944,2381.28C846.859,2380.82 850.052,2379.81 852.899,2379.29C853.75,2379.13 854.56,2379.02 855.299,2379.03C855.659,2379.04 856.009,2378.95 856.233,2379.17C856.994,2379.92 857.376,2380.93 857.684,2381.99C858.148,2383.59 858.389,2385.34 858.688,2387.03C859.229,2390.09 860.003,2392.99 861.598,2395.2C863.632,2398.02 867.726,2400.55 871.63,2402.99C873.17,2403.95 874.662,2404.91 875.849,2405.94C876.535,2406.53 877.158,2407.07 877.361,2407.75C877.449,2408.04 877.294,2408.35 877.183,2408.69C876.99,2409.28 876.704,2409.89 876.381,2410.52C875.291,2412.63 873.823,2414.86 872.803,2417.05C870.747,2421.47 870.417,2425.75 873.805,2429.41C875.175,2430.89 879.796,2433.73 885.295,2436.52C893.169,2440.51 902.816,2444.51 906.022,2444.92C907.927,2445.17 909.808,2445.35 911.689,2445.44C911.571,2445.53 911.483,2445.6 911.429,2445.64C908.686,2447.96 906.932,2450.85 905.222,2453.79C903.954,2455.97 902.73,2458.21 900.656,2459.98C898.907,2461.48 897.573,2463.35 896.225,2465.2C895.342,2466.41 894.48,2467.63 893.209,2468.45C891.103,2469.82 888.604,2470.31 886.17,2470.95C882.765,2471.83 879.457,2472.9 876.722,2475.17C874.385,2477.11 872.729,2479.81 871.079,2482.47C869.991,2484.22 868.96,2485.99 867.254,2487.03C861.783,2490.33 858.074,2491.79 855.045,2493.23C849.814,2495.71 846.261,2498.07 840.297,2507.52C839.424,2508.9 838.002,2509.79 836.881,2510.88C834.773,2512.93 833.244,2515.3 833.392,2518.95C833.604,2524.14 836.312,2528.01 840.123,2531.26C844.333,2534.84 850.17,2537.43 853.172,2541.44C854.315,2542.97 854.238,2545.36 854.248,2547.78C854.264,2551.42 854.066,2555.17 854.679,2557.94C855.562,2561.93 857.676,2565.47 859.945,2568.95C861.754,2571.72 863.683,2574.46 864.66,2577.58C865.458,2580.14 864.637,2582.9 863.391,2585.65C861.822,2589.12 859.452,2592.51 857.332,2595.5C855.026,2598.75 852.998,2601.59 852.119,2603.63C851.349,2605.42 851.267,2606.96 851.547,2608.11C853.455,2615.94 858.371,2621.06 863.93,2625.54C868.549,2629.26 873.662,2632.45 876.982,2637.11C879.014,2639.96 878.291,2643.57 877.585,2647.22C876.563,2652.51 875.206,2657.92 876.134,2662.49C877.015,2666.83 879.496,2670.35 882.078,2673.74C883.94,2676.18 885.917,2678.49 886.527,2681.39C887.365,2685.37 886.087,2690.76 884.097,2696.31C880.838,2705.39 875.414,2714.81 871.691,2719.77C871.938,2718.44 872.176,2717.11 872.395,2715.8C873.515,2709.08 874.093,2702.83 873.382,2699.48C871.632,2691.23 868.561,2683.57 867.838,2675.09C867.618,2672.5 868.417,2669.78 868.981,2667.08C869.77,2663.28 870.183,2659.52 868.998,2656.01C867.577,2651.8 864.996,2648.51 862.145,2645.41C859.826,2642.89 857.309,2640.53 855.473,2637.6C851.134,2630.69 848.833,2619.68 846.724,2611.76C844.129,2602.02 843.922,2594.62 843.395,2587.77C842.53,2576.53 840.946,2566.62 828.77,2551.42C827.501,2549.84 824.08,2548.59 820.811,2552.34C818.585,2554.9 815.066,2560.84 812.1,2565.67C810.49,2568.29 809.165,2570.56 808.363,2571.26C795.899,2582.04 780.458,2593.23 763.329,2585.71C763.265,2585.22 763.174,2584.38 763.188,2583.78C763.273,2580.26 764.268,2575.97 764.479,2574.62C766.415,2562.27 769.324,2543.46 767.778,2531.15C767.158,2526.21 764.834,2522.16 761.97,2518.39C759.601,2515.28 756.84,2512.38 754.828,2509.12C752.873,2505.96 752.281,2502.12 751.479,2498.35C750.451,2493.51 749.155,2488.77 746.045,2484.92C742.331,2480.32 736.489,2476.29 730.576,2472.24C725.563,2468.81 720.486,2465.37 717.102,2461.27L717.1,2461.26C716.537,2459.44 716.374,2458.17 716.65,2457.2C716.848,2456.49 717.328,2456.05 717.795,2455.61C718.459,2454.98 719.174,2454.39 719.843,2453.73C721.548,2452.05 722.999,2450.01 723.468,2446.77C723.903,2443.76 723.323,2439.75 722.894,2435.87C722.645,2433.61 722.316,2431.41 722.771,2429.72C723.435,2429.61 724.522,2429.43 725.311,2429.36C727.357,2429.17 729.468,2428.92 730.998,2428.38C732.168,2427.96 733.109,2427.37 733.799,2426.67C734.645,2425.82 735.124,2424.78 735.289,2423.61C735.427,2422.62 735.169,2421.41 735.107,2420.4C734.492,2410.37 736.594,2411.05 740.753,2402.92C743.752,2397.06 742.425,2390.31 741.679,2384.12L741.616,2383.6C744.486,2383.56 746.943,2384.38 749.161,2384.6C751.685,2384.85 754.003,2384.61 756.241,2383.39C758.264,2382.28 760.317,2380.3 762.244,2376.6C764.646,2371.99 770.411,2362.68 771.548,2357.85C772.098,2355.51 771.926,2352.94 771.768,2350.4C771.673,2348.88 771.506,2347.36 772.051,2346.05C773.322,2342.97 775.266,2340.32 777.119,2337.61C779.341,2334.35 781.45,2331.01 782.683,2327.07C783.683,2323.87 783.131,2320.26 782.518,2316.72C782.227,2315.03 781.805,2313.36 782.145,2311.87C787.039,2309.11 805.096,2299.1 809.94,2297.04L810.026,2297C810.538,2297.09 810.979,2297.35 811.411,2297.61C812.119,2298.04 812.789,2298.55 813.464,2299.02C815.268,2300.29 817.14,2301.29 819.256,2301.52C820.246,2301.63 822.7,2301.47 823.606,2298.49C824.111,2296.83 824.498,2288.23 824.572,2286.92C824.629,2285.91 825.526,2285.16 826.342,2284.37C827.897,2282.87 829.724,2281.57 830.914,2280.44C831.45,2279.93 832.235,2278.71 832.805,2276.96C833.013,2276.32 833.286,2275.42 833.56,2274.49ZM807.221,2408.96C790.956,2408.96 777.75,2422.16 777.75,2438.43C777.75,2443.03 780.114,2450.2 783.617,2457.93C791.226,2474.71 803.904,2494.52 803.904,2494.52C804.628,2495.65 805.878,2496.34 807.221,2496.34C808.564,2496.34 809.814,2495.65 810.538,2494.52C810.538,2494.52 823.216,2474.71 830.826,2457.93C834.328,2450.2 836.692,2443.03 836.692,2438.43C836.692,2422.16 823.486,2408.96 807.221,2408.96ZM807.221,2416.84C819.139,2416.84 828.814,2426.51 828.814,2438.43C828.814,2442.28 826.583,2448.21 823.651,2454.68C818.653,2465.7 811.404,2478.06 807.221,2484.93C803.038,2478.06 795.789,2465.7 790.791,2454.68C787.859,2448.21 785.628,2442.28 785.628,2438.43C785.628,2426.51 795.303,2416.84 807.221,2416.84ZM807.221,2425.07C799.847,2425.07 793.86,2431.06 793.86,2438.43C793.86,2445.8 799.847,2451.79 807.221,2451.79C814.595,2451.79 820.582,2445.8 820.582,2438.43C820.582,2431.06 814.595,2425.07 807.221,2425.07ZM807.221,2432.95C810.247,2432.95 812.704,2435.41 812.704,2438.43C812.704,2441.46 810.247,2443.91 807.221,2443.91C804.195,2443.91 801.738,2441.46 801.738,2438.43C801.738,2435.41 804.195,2432.95 807.221,2432.95Z"></path>
    </g>
  </g>
</svg>
